<svg xmlns="http://www.w3.org/2000/svg" width="49.846" height="58.824" viewBox="0 0 49.846 58.824">
  <g id="Group_55" data-name="Group 55" transform="translate(-1454.438 962.824)">
    <g id="Path_95" data-name="Path 95" transform="translate(1451 -962.824)" fill="#a09d9d">
      <path d="M 50.88662338256836 58.57427978515625 L 5.404751777648926 58.57427978515625 C 3.803251981735229 58.57427978515625 3.687691926956177 57.23495101928711 3.687691926956177 55.02915954589844 L 3.687691926956177 3.795120000839233 C 3.687691926956177 1.589329838752747 3.803251981735229 0.2499998956918716 5.404751777648926 0.2499998956918716 L 50.88662338256836 0.2499998956918716 C 51.80856323242188 0.2499998956918716 53.03423309326172 0.6174998879432678 53.03423309326172 3.795120000839233 L 53.03423309326172 55.02915954589844 C 53.03423309326172 58.20677947998047 51.80856323242188 58.57427978515625 50.88662338256836 58.57427978515625 Z" stroke="none"/>
      <path d="M 5.404750823974609 0.5 C 4.149730682373047 0.5 3.937690734863281 1.322750091552734 3.937690734863281 3.795120239257812 L 3.937690734863281 55.02915954589844 C 3.937690734863281 57.50152969360352 4.149730682373047 58.32427978515625 5.404750823974609 58.32427978515625 L 50.88662338256836 58.32427978515625 C 51.77011108398438 58.32427978515625 52.78423309326172 57.94974899291992 52.78423309326172 55.02915954589844 L 52.78423309326172 3.795120239257812 C 52.78423309326172 0.8745307922363281 51.77011108398438 0.5 50.88662338256836 0.5 L 5.404750823974609 0.5 M 5.404750823974609 0 L 50.88662338256836 0 C 52.78520202636719 0 53.28423309326172 1.699131011962891 53.28423309326172 3.795120239257812 L 53.28423309326172 55.02915954589844 C 53.28423309326172 57.12514877319336 52.78520202636719 58.82427978515625 50.88662338256836 58.82427978515625 L 5.404750823974609 58.82427978515625 C 3.506172180175781 58.82427978515625 3.437690734863281 57.12514877319336 3.437690734863281 55.02915954589844 L 3.437690734863281 3.795120239257812 C 3.437690734863281 1.699131011962891 3.506172180175781 0 5.404750823974609 0 Z" stroke="none" fill="#a09d9d"/>
    </g>
    <g id="Rectangle_121" data-name="Rectangle 121" transform="translate(1480.207 -936.686) rotate(-17)" fill="#fff" stroke="#a09d9d" stroke-width="0.5">
      <rect width="16" height="16" rx="1" stroke="none"/>
      <rect x="0.25" y="0.25" width="15.5" height="15.5" rx="0.75" fill="none"/>
    </g>
    <g id="Path_22" data-name="Path 22" transform="translate(1451 -935.954)" fill="#fff">
      <path d="M 49.29570770263672 24.00567436218262 L 7.06660795211792 24.00567436218262 L 7.06660795211792 6.615019798278809 C 7.459201812744141 6.246643543243408 8.647847175598145 5.194918155670166 10.45402812957764 4.155753612518311 C 12.49909782409668 2.979153633117676 15.7810583114624 1.576593637466431 19.80256843566895 1.576593637466431 C 22.03240776062012 1.576593637466431 24.29096794128418 2.004653692245483 26.51551818847656 2.848883628845215 C 29.16083717346191 3.85279369354248 32.0146369934082 4.361813545227051 34.9976692199707 4.361813545227051 C 39.4367790222168 4.361813545227051 43.4091796875 3.223423719406128 45.95992660522461 2.268423557281494 C 47.65951919555664 1.632098913192749 48.9560661315918 1.000041842460632 49.71947479248047 0.5973548293113708 L 49.29570770263672 24.00567436218262 Z" stroke="none"/>
      <path d="M 49.20451354980469 1.419166564941406 C 48.43036651611328 1.798183441162109 47.38959503173828 2.267059326171875 46.13524627685547 2.736682891845703 C 43.54582977294922 3.706153869628906 39.5116081237793 4.861814498901367 34.9976806640625 4.861814498901367 C 31.95380783081055 4.861814498901367 29.04031753540039 4.34184455871582 26.3381175994873 3.316343307495117 C 24.17045974731445 2.493703842163086 21.97157669067383 2.076593399047852 19.80256652832031 2.076593399047852 C 15.90541839599609 2.076593399047852 12.7192497253418 3.433794021606445 10.73263931274414 4.572343826293945 C 9.152126312255859 5.478151321411133 8.054500579833984 6.394996643066406 7.566608428955078 6.834546089172363 L 7.566608428955078 23.50567436218262 L 48.80467224121094 23.50567436218262 L 49.20451354980469 1.419166564941406 M 50.235107421875 -0.2614765167236328 L 49.78673934936523 24.50567436218262 L 6.566608428955078 24.50567436218262 L 6.566608428955078 6.402833938598633 C 6.566608428955078 6.402833938598633 11.77590560913086 1.076589584350586 19.80257034301758 1.076589584350586 C 21.91849899291992 1.076589584350586 24.22902297973633 1.446342468261719 26.69292831420898 2.381402969360352 C 29.51870346069336 3.453800201416016 32.34054565429688 3.861808776855469 34.9976806640625 3.861808776855469 C 43.4462890625 3.861808776855469 50.235107421875 -0.2614765167236328 50.235107421875 -0.2614765167236328 Z" stroke="none" fill="silver"/>
    </g>
  </g>
</svg>
