<svg xmlns="http://www.w3.org/2000/svg" width="69.952" height="78.246" viewBox="0 0 69.952 78.246">
  <g id="Group_43" data-name="Group 43" transform="translate(-470.652 977.096)">
    <g id="Grey-Special-Icon">
      <path id="Path_54" data-name="Path 54" d="M614.2-475.719l-2.541,6.509h-6.519l6.519,3.745H610.9l-1.993,6.3,5.289-4.305,3.11,2.622,1.753,1.683-1.753-6.3,5.751-3.745H616.61Z" transform="translate(-84.141 -499.97)" fill="#d9be2a" stroke="#d9be2a" stroke-width="1"/>
      <path id="Path_24" data-name="Path 24" d="M729.762-405.038c2.71.319,14.438.622,25.644.346,3.412-.084,3.229-.048,7.218-.346.95-.073,1.439-.156,1.554-.377.492-.6-9.185-1.177-12.006-2.237a6.662,6.662,0,0,1-4.091-4.18h-1.846s-.418,2.556-4.607,4.18S730.047-406.253,729.762-405.038Z" transform="translate(-226.807 -497.589)" fill="#a09d9d" stroke="#a09d9d" stroke-width="1"/>
      <path id="Path_38" data-name="Path 38" d="M0,0H3V28H0Z" transform="translate(518.7 -936.598)" fill="#a09d9d"/>
      <g id="Path_25" data-name="Path 25" transform="translate(502.193 -956.055)" fill="#fff">
        <path d="M 17.86888885498047 30.83197975158691 C 15.68024826049805 30.83197975158691 13.46529865264893 30.31054878234863 11.28553867340088 29.28219032287598 C 9.198448181152344 28.29753875732422 7.089558601379395 26.82333946228027 5.017458438873291 24.90053939819336 C 3.420808553695679 23.41893005371094 2.179818630218506 21.20582008361816 1.328948616981506 18.32266998291016 C 0.6386685967445374 15.9836597442627 0.2041385769844055 13.20682907104492 0.03743857145309448 10.06932926177979 C -0.1968770772218704 5.659235954284668 0.1709075421094894 1.768177509307861 0.3123124241828918 0.499999463558197 L 34.94773864746094 0.499999463558197 C 35.08373641967773 1.852007985115051 35.44012451171875 6.15494966506958 35.04856872558594 10.97317981719971 C 34.77296829223633 14.36452960968018 34.18636703491211 17.34274864196777 33.30506896972656 19.82510948181152 C 32.21866989135742 22.88518905639648 30.68129920959473 25.18840026855469 28.73566818237305 26.67074966430664 C 25.11153793334961 29.43194007873535 21.45542907714844 30.83197975158691 17.86888885498047 30.83197975158691 Z" stroke="none"/>
        <path d="M 0.7619857788085938 1 C 0.603302001953125 2.571701049804688 0.3270187377929688 6.095724105834961 0.5367279052734375 10.04279899597168 C 0.7013702392578125 13.14138031005859 1.129249572753906 15.87951850891113 1.808498382568359 18.18114852905273 C 2.633586883544922 20.97694969177246 3.827669143676758 23.1143684387207 5.357559204101562 24.53402900695801 C 7.392007827758789 26.42187881469727 9.458248138427734 27.86724853515625 11.49887847900391 28.82997894287109 C 13.61140823364258 29.82662963867188 15.75459861755371 30.33197021484375 17.86889839172363 30.33197021484375 C 21.34344863891602 30.33197021484375 24.89760971069336 28.96635055541992 28.43264770507812 26.27302932739258 C 30.29804801940918 24.85179901123047 31.77788925170898 22.62879943847656 32.83105850219727 19.66576957702637 C 33.69793701171875 17.22686958312988 34.27587890625 14.29430961608887 34.548828125 10.94953918457031 C 34.90293121337891 6.610431671142578 34.64431762695312 2.688694000244141 34.49295425415039 1 L 0.7619857788085938 1 M -0.1316413879394531 0 L 35.39641952514648 0 C 35.39641952514648 0 37.92070007324219 20.30134963989258 29.03868865966797 27.0684700012207 C 25.17882537841797 30.00925445556641 21.44982147216797 31.33197212219238 17.86889457702637 31.33197212219238 C 13.20966339111328 31.33197212219238 8.800800323486328 29.09337425231934 4.677358627319336 25.26704978942871 C -2.615222930908203 18.49992942810059 -0.1316413879394531 0 -0.1316413879394531 0 Z" stroke="none" fill="#a09d9d"/>
      </g>
      <g id="Path_26" data-name="Path 26" transform="translate(502.193 -952.148)" fill="#a09d9d">
        <path d="M 16.44252014160156 27.19961357116699 C 12.34115028381348 27.19961357116699 8.600951194763184 25.59457397460938 5.626250743865967 22.5579948425293 C 4.292260646820068 21.19625473022461 3.18764066696167 19.58390426635742 2.343080759048462 17.76573371887207 C 1.665020704269409 16.30601501464844 1.151880741119385 14.71090412139893 0.8179007768630981 13.02469444274902 C 0.4318220615386963 11.07541751861572 0.3774245977401733 9.45988655090332 0.3828118741512299 8.616497993469238 C 1.800812482833862 9.01716136932373 5.473203659057617 9.883864402770996 10.70632076263428 9.883864402770996 C 14.61029052734375 9.883864402770996 18.57225036621094 9.395614624023438 22.48212051391602 8.432674407958984 C 26.31381988525391 7.488994121551514 29.36429023742676 7.010504245758057 31.54878997802734 7.010504245758057 C 33.23535919189453 7.010504245758057 34.0460090637207 7.297064304351807 34.42906188964844 7.537454128265381 C 34.74123001098633 7.733368396759033 34.78790664672852 7.908878326416016 34.79435348510742 7.944656372070312 L 34.79510116577148 7.965304374694824 C 34.79597091674805 7.990304470062256 34.87387084960938 10.53118419647217 34.01901245117188 13.69062423706055 C 33.51993179321289 15.53514385223389 32.80483245849609 17.22757339477539 31.89356994628906 18.72089385986328 C 30.76053047180176 20.57764434814453 29.31785011291504 22.1317138671875 27.60560035705566 23.33993339538574 C 24.0272102355957 25.86496353149414 20.16707992553711 27.19961357116699 16.44252014160156 27.19961357116699 Z" stroke="none"/>
        <path d="M 31.5488109588623 7.510503768920898 C 29.40435028076172 7.510543823242188 26.39410018920898 7.984153747558594 22.6016902923584 8.918174743652344 C 18.65273094177246 9.89073371887207 14.65055084228516 10.38386344909668 10.70631980895996 10.38386344909668 C 6.082176208496094 10.38386344909668 2.649307250976562 9.711246490478516 0.8912811279296875 9.268718719482422 C 0.9177742004394531 10.16478538513184 1.016937255859375 11.47734069824219 1.320301055908203 12.98736381530762 C 1.649379730224609 14.62539482116699 2.151329040527344 16.17352485656738 2.812210083007812 17.58875465393066 C 3.630630493164062 19.34133529663086 4.697580337524414 20.89551544189453 5.983430862426758 22.20810317993164 C 8.861921310424805 25.1464729309082 12.4786205291748 26.69961357116699 16.44252014160156 26.69961357116699 C 20.06330108642578 26.69961357116699 23.82374954223633 25.39658355712891 27.31732177734375 22.93140411376953 C 28.9686107635498 21.76619338989258 30.36147117614746 20.26721382141113 31.45719146728516 18.47609329223633 C 32.34336090087891 17.02752494812012 33.0401725769043 15.38356399536133 33.52825927734375 13.58988380432129 C 34.28331756591797 10.8151683807373 34.30163955688477 8.523946762084961 34.29689788818359 8.066436767578125 C 34.18422317504883 7.951225280761719 33.61648941040039 7.510452270507812 31.5488109588623 7.510503768920898 M 31.54878807067871 6.510499954223633 C 35.38091278076172 6.510412216186523 35.29476928710938 7.947183609008789 35.29476928710938 7.947183609008789 C 35.29476928710938 7.947183609008789 35.66889190673828 18.26214408874512 27.89387130737305 23.74846458435059 C 24.17671966552734 26.37141036987305 20.21910858154297 27.69961738586426 16.4425163269043 27.69961738586426 C 12.31974792480469 27.69961738586426 8.412679672241211 26.11688423156738 5.269081115722656 22.90789413452148 C -0.7541580200195312 16.75936508178711 -0.09679794311523438 7.947183609008789 -0.09679794311523438 7.947183609008789 C -0.09679794311523438 7.947183609008789 4.052406311035156 9.383869171142578 10.7063159942627 9.383869171142578 C 14.03388023376465 9.383869171142578 17.98693656921387 9.024829864501953 22.36255073547363 7.947183609008789 C 26.73736381530762 6.86973762512207 29.63290214538574 6.510543823242188 31.54878807067871 6.510499954223633 Z" stroke="none" fill="#a09d9d"/>
      </g>
      <path id="Path_53" data-name="Path 53" d="M1.271,7.931v.315L1.6,12.152A64.9,64.9,0,0,0,8.851,13a32.706,32.706,0,0,0,9.447-.355,24.382,24.382,0,0,0,2.979-.489,23.273,23.273,0,0,0,2.622-.717s2.086-.546,3.6-.858a11.178,11.178,0,0,1,2.456-.388,18.875,18.875,0,0,1,2.893,0,10.889,10.889,0,0,1,2.388.388l-.355-9.442L6.289,1.318Z" transform="translate(501.654 -956.055)" fill="#d9be2a" stroke="#d9be2a" stroke-linecap="round" stroke-linejoin="round" stroke-width="0.8"/>
      <path id="Path_28" data-name="Path 28" d="M876.336-379.867h43.843L897.74-349.69Z" transform="translate(-405 -586)" fill="#a09d9d" stroke="#a09d9d" stroke-linecap="round" stroke-linejoin="round" stroke-width="1"/>
      <g id="Rectangle_29" data-name="Rectangle 29" transform="translate(492 -937)" fill="#a09d9d" stroke="#a09d9d" stroke-width="2">
        <rect width="2" height="34" stroke="none"/>
        <rect x="1" y="1" height="32" fill="none"/>
      </g>
      <g id="Path_29" data-name="Path 29" transform="translate(477 -904)" fill="none" stroke-linecap="round" stroke-linejoin="round">
        <path d="M0,0H32V2H0Z" stroke="none"/>
        <path d="M -3.814697265625e-06 0 L 32.00001907348633 0 L 32.00001907348633 2 L -3.814697265625e-06 2 L -3.814697265625e-06 0 Z" stroke="none" fill="#a09d9d"/>
      </g>
      <g id="Ellipse_16" data-name="Ellipse 16" transform="translate(483 -961)" fill="#d9be2a" stroke="#d9be2a" stroke-width="1">
        <ellipse cx="1.25" cy="1.25" rx="1.25" ry="1.25" stroke="none"/>
        <ellipse cx="1.25" cy="1.25" rx="0.75" ry="0.75" fill="none"/>
      </g>
      <g id="Ellipse_17" data-name="Ellipse 17" transform="translate(493 -959)" fill="#d9be2a" stroke="#d9be2a" stroke-width="1">
        <ellipse cx="1.5" cy="1.5" rx="1.5" ry="1.5" stroke="none"/>
        <ellipse cx="1.5" cy="1.5" rx="1" ry="1" fill="none"/>
      </g>
      <g id="Ellipse_18" data-name="Ellipse 18" transform="translate(488 -955)" fill="#d9be2a" stroke="#d9be2a" stroke-width="1">
        <ellipse cx="1" cy="1" rx="1" ry="1" stroke="none"/>
        <ellipse cx="1" cy="1" rx="0.5" ry="0.5" fill="none"/>
      </g>
      <line id="Line_10" data-name="Line 10" y1="23" x2="14" transform="translate(494.5 -966.5)" fill="none" stroke="#d9be2a" stroke-linecap="round" stroke-width="0.5"/>
      <path id="Path_37" data-name="Path 37" d="M0,6,4,0" transform="translate(508.5 -972.5)" fill="none" stroke="silver" stroke-linecap="round" stroke-width="0.5"/>
      <g id="Ellipse_19" data-name="Ellipse 19" transform="translate(489 -949)" fill="#d9be2a" stroke="#d9be2a" stroke-width="1">
        <ellipse cx="1.85" cy="1.85" rx="1.85" ry="1.85" stroke="none"/>
        <ellipse cx="1.85" cy="1.85" rx="1.35" ry="1.35" fill="none"/>
      </g>
      <path id="Path_30" data-name="Path 30" d="M9,0" transform="translate(505.5 -931.5)" fill="none" stroke="#707070" stroke-width="1"/>
      <path id="Path_33" data-name="Path 33" d="M.132,0,11.106,1.587l.1.183L0,.07Z" transform="matrix(0.469, -0.883, 0.883, 0.469, 501.666, -946.944)" fill="#a09d9d"/>
      <path id="Path_51" data-name="Path 51" d="M-.684,9.469l37.2-.25,4.208-6.356.752-.085.274.585L37.706,9.327l6.83.142L37.248,19.631s28.791-.23,29.059-.012.8,8.556-.265,14.633-2.256,7.763-3.225,9.36S61.1,45.87,58.689,47.75l-.947.587-1.335.78-.11.061a19.2,19.2,0,0,1-2.386.945s-.868.3-1.744.52-1.758.342-1.758.342-.194,14.577.1,15.7a2.922,2.922,0,0,0,1.257,1.852,5.815,5.815,0,0,0,2.36,1.3,11.66,11.66,0,0,0,2.608.68c1.5.315,8.664,1.329,9.638,1.712s-.636,1.233-.636,1.233a8.057,8.057,0,0,1-2.185.3c-.5.033-5.1.152-11.785.182-5.178.023-14.667.012-18.5-.126-14.061-.1-27.649-.009-27.649-.009V71.594l15.012-.016-.093-31.749Z" transform="translate(471.336 -975.69)" fill="none"/>
      <path id="Path_52" data-name="Path 52" d="M22.7,39.139l7.74-10.292s.127,7.171,1.656,11.738A18.876,18.876,0,0,0,33.7,43.7a17.706,17.706,0,0,0,3.106,3.486,33.9,33.9,0,0,0,5.247,3.143,21.141,21.141,0,0,0,5.27.766s.233,15.165,0,15.823-.108.953-1.4,1.727a7.516,7.516,0,0,1-1.285.788,17.689,17.689,0,0,1-2.449.791,27.492,27.492,0,0,1-4.975.825s-1.819.248-3.435.4-3.027.193-3.027.193H22.635Z" transform="translate(471.336 -975.69)" fill="none"/>
    </g>
    <line id="Line_29" data-name="Line 29" x2="61" transform="translate(476.5 -899.5)" fill="none" stroke="#d9be2a" stroke-width="1.3"/>
  </g>
</svg>
