<svg xmlns="http://www.w3.org/2000/svg" width="30" height="75" viewBox="0 0 30 75">
  <g id="Group_54" data-name="Group 54" transform="translate(-815 974)">
    <rect id="Rectangle_98" data-name="Rectangle 98" width="28" height="52" rx="3" transform="translate(816 -951)" fill="#a09d9d"/>
    <g id="Path_39" data-name="Path 39" transform="translate(818.5 -906.5) rotate(-90)" fill="#fff">
      <path d="M 28.23529052734375 3.5 L 1.764710903167725 3.5 C 1.06735098361969 3.5 0.5000009536743164 2.827100038528442 0.5000009536743164 2 C 0.5000009536743164 1.172899961471558 1.06735098361969 0.5 1.764710903167725 0.5 L 28.23529052734375 0.5 C 28.93265151977539 0.5 29.5 1.172899961471558 29.5 2 C 29.5 2.827100038528442 28.93265151977539 3.5 28.23529052734375 3.5 Z" stroke="none"/>
      <path d="M 1.764701843261719 1 C 1.350191116333008 1 1.000001907348633 1.457940101623535 1.000001907348633 2 C 1.000001907348633 2.542059898376465 1.350191116333008 3 1.764701843261719 3 L 28.23529052734375 3 C 28.64981079101562 3 29 2.542059898376465 29 2 C 29 1.457940101623535 28.64981079101562 1 28.23529052734375 1 L 1.764701843261719 1 M 1.764701843261719 0 L 28.23529052734375 0 C 29.20991134643555 0 30 0.8954300880432129 30 2 C 30 3.104569911956787 29.20991134643555 4 28.23529052734375 4 L 1.764701843261719 4 C 0.7900905609130859 4 1.9073486328125e-06 3.104569911956787 1.9073486328125e-06 2 C 1.9073486328125e-06 0.8954300880432129 0.7900905609130859 0 1.764701843261719 0 Z" stroke="none" fill="#a09d9d"/>
    </g>
    <rect id="Rectangle_99" data-name="Rectangle 99" width="9" height="20" rx="3" transform="translate(826 -969)" fill="#a09d9d"/>
    <path id="Polygon_2" data-name="Polygon 2" d="M10.98.316a1,1,0,0,1,1.04,0l7.934,4.829A1,1,0,0,1,19.434,7H3.566a1,1,0,0,1-.52-1.854Z" transform="translate(815 -956)" fill="#a09d9d"/>
    <path id="Polygon_3" data-name="Polygon 3" d="M10.98.316a1,1,0,0,1,1.04,0l7.934,4.829A1,1,0,0,1,19.434,7H3.566a1,1,0,0,1-.52-1.854Z" transform="translate(822 -956)" fill="#a09d9d"/>
    <rect id="Rectangle_100" data-name="Rectangle 100" width="11" height="7" rx="1" transform="translate(825 -974)" fill="#a09d9d"/>
    <rect id="Rectangle_101" data-name="Rectangle 101" width="7" height="2" rx="1" transform="translate(819.065 -948.117) rotate(-33)" fill="#fff"/>
  </g>
</svg>
