<svg id="Grey-Spirit-Icon" xmlns="http://www.w3.org/2000/svg" width="54.77" height="68.326" viewBox="0 0 54.77 68.326">
  <g id="Path_17" data-name="Path 17" transform="translate(0.63)" fill="#fff">
    <path d="M 45.93856430053711 67.72586059570312 L 8.811426162719727 67.72586059570312 L 0.05330429598689079 0.6000033617019653 L 53.4686393737793 0.6000033617019653 L 45.93856430053711 67.72586059570312 Z" stroke="none"/>
    <path d="M 0.736663818359375 1.200004577636719 L 9.338218688964844 67.12586212158203 L 45.40210723876953 67.12586212158203 L 52.79756927490234 1.200004577636719 L 0.736663818359375 1.200004577636719 M -0.6300697326660156 0 L 54.13971328735352 0 L 46.47502136230469 68.32586669921875 L 8.284622192382812 68.32586669921875 L -0.6300697326660156 0 Z" stroke="none" fill="#a09d9d"/>
  </g>
  <g id="Path_18" data-name="Path 18" transform="translate(0.63 0.603)" fill="#a09d9d">
    <path d="M 47.31358337402344 67.22271728515625 L 7.43074893951416 67.22271728515625 L 2.568105697631836 14.91658592224121 C 2.884049415588379 14.75638484954834 3.490371227264404 14.48220729827881 4.39673900604248 14.21025085449219 C 5.689679145812988 13.82230091094971 7.874319076538086 13.35985088348389 10.93948936462402 13.35985088348389 C 14.43543338775635 13.35985088348389 18.32776069641113 13.94848918914795 22.50944900512695 15.109619140625 C 25.50447845458984 16.37428665161133 28.84515380859375 17.01554107666016 32.43909072875977 17.01554107666016 C 36.04507827758789 17.01554107666016 39.83671951293945 16.39380073547363 44.03067779541016 15.11479091644287 C 45.43719863891602 14.6858606338501 46.81937026977539 14.46837139129639 48.13879776000977 14.46837139129639 C 49.71239471435547 14.46837139129639 50.81403732299805 14.78266429901123 51.31560897827148 14.96254348754883 L 47.31358337402344 67.22271728515625 Z" stroke="none"/>
    <path d="M 10.93948745727539 13.85984802246094 C 7.966197967529297 13.85984802246094 5.847827911376953 14.30210113525391 4.594310760498047 14.67311096191406 C 3.931007385253906 14.86942672729492 3.433700561523438 15.06691360473633 3.0982666015625 15.21773529052734 L 7.886428833007812 66.72271728515625 L 46.85041046142578 66.72271728515625 L 50.78699493408203 15.31710433959961 C 50.23651123046875 15.15735244750977 49.33288955688477 14.96835327148438 48.13882064819336 14.9683723449707 C 46.86875915527344 14.96839141845703 45.53565979003906 15.17856216430664 44.17652893066406 15.59305191040039 C 39.9345588684082 16.88669204711914 36.09520721435547 17.51554107666016 32.43907928466797 17.51554107666016 C 28.78982353210449 17.51554107666016 25.39407348632812 16.86532592773438 22.34482383728027 15.58283233642578 C 18.21850967407227 14.43950271606445 14.38159561157227 13.85984802246094 10.93948745727539 13.85984802246094 M 10.93948745727539 12.85984802246094 C 13.99663162231445 12.85984802246094 17.88493347167969 13.30385589599609 22.67449951171875 14.63653945922852 C 25.93591690063477 16.01934051513672 29.28472518920898 16.51554107666016 32.43907928466797 16.51554107666016 C 36.91178512573242 16.51554107666016 40.9939079284668 15.51816177368164 43.88482666015625 14.63653945922852 C 45.52796936035156 14.13544464111328 46.95999145507812 13.96839141845703 48.1387939453125 13.96836853027344 C 50.49662017822266 13.96833038330078 51.842041015625 14.63653945922852 51.842041015625 14.63653945922852 L 47.77676010131836 67.72271728515625 L 6.975078582763672 67.72271728515625 L 2.039920806884766 14.63653945922852 C 2.039920806884766 14.63653945922852 4.826316833496094 12.85984802246094 10.93948745727539 12.85984802246094 Z" stroke="none" fill="#a09d9d"/>
  </g>
  <g id="Ellipse_6" data-name="Ellipse 6" transform="translate(17.314 45.075)" fill="#fff" stroke="#fff" stroke-width="1">
    <circle cx="1" cy="1" r="1" stroke="none"/>
    <circle cx="1" cy="1" r="0.5" fill="none"/>
  </g>
  <g id="Ellipse_7" data-name="Ellipse 7" transform="translate(25.334 33.861)" fill="#fff" stroke="#fff" stroke-width="1">
    <circle cx="1.25" cy="1.25" r="1.25" stroke="none"/>
    <circle cx="1.25" cy="1.25" r="0.75" fill="none"/>
  </g>
  <g id="Ellipse_8" data-name="Ellipse 8" transform="translate(33.585 59.326)" fill="#fff" stroke="#fff" stroke-width="1">
    <circle cx="0.75" cy="0.75" r="0.75" stroke="none"/>
    <circle cx="0.75" cy="0.75" r="0.25" fill="none"/>
  </g>
  <g id="Ellipse_9" data-name="Ellipse 9" transform="translate(13.838 22.859)" fill="#fff" stroke="#fff" stroke-width="1">
    <circle cx="1" cy="1" r="1" stroke="none"/>
    <circle cx="1" cy="1" r="0.5" fill="none"/>
  </g>
  <g id="Ellipse_10" data-name="Ellipse 10" transform="translate(40.887 29.961)" fill="#fff" stroke="#fff" stroke-width="1">
    <circle cx="1.6" cy="1.6" r="1.6" stroke="none"/>
    <circle cx="1.6" cy="1.6" r="1.1" fill="none"/>
  </g>
</svg>
