<svg xmlns="http://www.w3.org/2000/svg" width="67.085" height="71.718" viewBox="0 0 67.085 71.718">
  <g id="Grey-Popular-Icon" transform="translate(-559.836 972.847)">
    <g id="Grey-Wine-Icon" transform="translate(-137.807 -492.055)" opacity="0.9">
      <path id="Path_24" data-name="Path 24" d="M729.762-405.038c2.71.319,14.438.622,25.644.346,3.412-.084,3.229-.048,7.218-.346.95-.073,1.439-.156,1.554-.377.492-.6-9.185-1.177-12.006-2.237a6.662,6.662,0,0,1-4.091-4.18h-1.846s-.418,2.556-4.607,4.18S730.047-406.253,729.762-405.038Z" transform="translate(0 -5.535)" fill="#a09d9d" stroke="#a09d9d" stroke-width="1"/>
      <rect id="Rectangle_28" data-name="Rectangle 28" width="3" height="28" transform="translate(745.507 -444.543)" fill="#a09d9d"/>
      <g id="Path_25" data-name="Path 25" transform="translate(729 -464)" fill="#fff">
        <path d="M 17.86888122558594 30.83197975158691 C 15.680251121521 30.83197975158691 13.46529102325439 30.31054878234863 11.28554058074951 29.28219032287598 C 9.198451042175293 28.29753875732422 7.089560985565186 26.82333946228027 5.017460823059082 24.90053939819336 C 3.42081093788147 23.41893005371094 2.179821014404297 21.20582008361816 1.328951001167297 18.32266998291016 C 0.6386709213256836 15.9836597442627 0.2041409462690353 13.20682907104492 0.0374409407377243 10.06932926177979 C -0.1968747079372406 5.659235954284668 0.1709099113941193 1.768177509307861 0.3123147785663605 0.499999463558197 L 34.94771957397461 0.499999463558197 C 35.08372116088867 1.852007985115051 35.44010543823242 6.15494966506958 35.04854965209961 10.97317981719971 C 34.77294921875 14.36452960968018 34.18635177612305 17.34274864196777 33.30504989624023 19.82510948181152 C 32.21865081787109 22.88518905639648 30.6812801361084 25.18840026855469 28.73565101623535 26.67074966430664 C 25.11152076721191 29.43194007873535 21.45541000366211 30.83197975158691 17.86888122558594 30.83197975158691 Z" stroke="none"/>
        <path d="M 0.7619895935058594 1 C 0.6033058166503906 2.571701049804688 0.3270225524902344 6.095724105834961 0.5367317199707031 10.04279899597168 C 0.7013702392578125 13.14138031005859 1.129249572753906 15.87951850891113 1.808502197265625 18.18114852905273 C 2.633590698242188 20.97694969177246 3.827671051025391 23.1143684387207 5.357561111450195 24.53402900695801 C 7.392011642456055 26.42187881469727 9.458250045776367 27.86724853515625 11.49888038635254 28.82997894287109 C 13.61141014099121 29.82662963867188 15.75459098815918 30.33197021484375 17.86888122558594 30.33197021484375 C 21.34342193603516 30.33197021484375 24.89758110046387 28.96633911132812 28.43263053894043 26.27301979064941 C 30.29803085327148 24.85179901123047 31.77787017822266 22.6287899017334 32.83105087280273 19.6657600402832 C 33.69792175292969 17.22686958312988 34.27585983276367 14.29430961608887 34.54882049560547 10.94953918457031 C 34.90292358398438 6.610431671142578 34.64430999755859 2.688694000244141 34.49294662475586 1 L 0.7619895935058594 1 M -0.1316375732421875 0 L 35.39641189575195 0 C 35.39641189575195 0 37.92068099975586 20.30134963989258 29.03867149353027 27.06845855712891 C 25.17881393432617 30.00924873352051 21.44980812072754 31.33197021484375 17.86888313293457 31.33197021484375 C 13.20965576171875 31.33197021484375 8.800802230834961 29.09337425231934 4.677360534667969 25.26704978942871 C -2.615219116210938 18.49992942810059 -0.1316375732421875 0 -0.1316375732421875 0 Z" stroke="none" fill="#a09d9d"/>
      </g>
      <g id="Path_26" data-name="Path 26" transform="translate(729 -460.093)" fill="#a09d9d">
        <path d="M 16.4425163269043 26.92532539367676 C 12.33990669250488 26.92532539367676 8.598917007446289 25.34092712402344 5.623976707458496 22.34341621398926 C 4.290426731109619 20.99974632263184 3.186216831207275 19.40889549255371 2.342016935348511 17.61503601074219 C 1.664316892623901 16.17498588562012 1.151446938514709 14.60136604309082 0.817656934261322 12.93788623809814 C 0.4326696395874023 11.01930236816406 0.3776668310165405 9.428828239440918 0.3827601969242096 8.595458030700684 C 1.799283266067505 8.990650177001953 5.471976280212402 9.84666633605957 10.70631694793701 9.84666633605957 C 14.60978698730469 9.84666633605957 18.57124710083008 9.36479663848877 22.48065757751465 8.414436340332031 C 26.31281661987305 7.482846260070801 29.36377716064453 7.010496139526367 31.54878616333008 7.010496139526367 C 34.50213241577148 7.010496139526367 34.77780914306641 7.861240386962891 34.79446029663086 7.929450988769531 L 34.79510879516602 7.946946144104004 C 34.79597854614258 7.971586227416992 34.87375640869141 10.47831630706787 34.01922607421875 13.59517669677734 C 33.52036666870117 15.41472625732422 32.80561828613281 17.08425712585449 31.89481735229492 18.55739593505859 C 30.76218605041504 20.38932609558105 29.31992721557617 21.92273712158203 27.60808753967285 23.11502647399902 C 24.02916717529297 25.60774612426758 20.16817665100098 26.92532539367676 16.4425163269043 26.92532539367676 Z" stroke="none"/>
        <path d="M 31.54879760742188 7.510496139526367 C 29.40335655212402 7.510536193847656 26.39212799072266 7.97813606262207 22.5987663269043 8.900285720825195 C 18.65073776245117 9.860036849975586 14.6495361328125 10.34666633605957 10.7063159942627 10.34666633605957 C 6.08110237121582 10.34666633605957 2.648666381835938 9.682413101196289 0.8921470642089844 9.245798110961914 C 0.9718132019042969 11.7707405090332 1.651924133300781 17.63143539428711 5.978866577148438 21.99119567871094 C 8.857847213745117 24.89202499389648 12.47611618041992 26.42532730102539 16.4425163269043 26.42532730102539 C 20.06547737121582 26.42532730102539 23.82765579223633 25.13876724243164 27.32232666015625 22.70473670959473 C 28.97279739379883 21.5551872253418 30.36481666564941 20.07668685913086 31.45972633361816 18.31030654907227 C 32.34495544433594 16.88218688964844 33.04105758666992 15.2614860534668 33.5286979675293 13.49320602416992 C 34.27857971191406 10.77398300170898 34.30135726928711 8.525568008422852 34.29697036743164 8.055513381958008 C 34.17704772949219 7.938604354858398 33.59661483764648 7.510444641113281 31.54879760742188 7.510496139526367 M 31.54877853393555 6.510498046875 C 35.38090133666992 6.510410308837891 35.29475784301758 7.928586959838867 35.29475784301758 7.928586959838867 C 35.29475784301758 7.928586959838867 35.66888809204102 18.11001586914062 27.89385604858398 23.52531623840332 C 24.17671012878418 26.11430740356445 20.21910285949707 27.42532157897949 16.44251251220703 27.42532157897949 C 12.31974601745605 27.42532157897949 8.412681579589844 25.86307716369629 5.269086837768555 22.69562530517578 C -0.7541542053222656 16.62669563293457 -0.0968017578125 7.928586959838867 -0.0968017578125 7.928586959838867 C -0.0968017578125 7.928586959838867 4.052406311035156 9.346670150756836 10.7063159942627 9.346670150756836 C 14.03388214111328 9.346670150756836 17.98693656921387 8.992279052734375 22.36254692077637 7.928586959838867 C 26.73735618591309 6.865083694458008 29.63289260864258 6.510540008544922 31.54877853393555 6.510498046875 Z" stroke="none" fill="#a09d9d"/>
      </g>
    </g>
    <g id="White-Cocktail-Icon" transform="translate(-315 -606)" opacity="0.9">
      <path id="Path_28" data-name="Path 28" d="M876.336-379.867h43.843L897.74-349.69Z" transform="translate(-1 20)" fill="#a09d9d" stroke="#a09d9d" stroke-linecap="round" stroke-linejoin="round" stroke-width="1"/>
      <g id="Rectangle_29" data-name="Rectangle 29" transform="translate(896 -331)" fill="#fff" stroke="#a09d9d" stroke-width="2">
        <rect width="2" height="34" stroke="none"/>
        <rect x="1" y="1" height="32" fill="none"/>
      </g>
      <g id="Path_29" data-name="Path 29" transform="translate(881 -298)" fill="#fff" stroke-linecap="round" stroke-linejoin="round">
        <path d="M0,0H32V2H0Z" stroke="none"/>
        <path d="M 0 0 L 32 0 L 32 2 L 0 2 L 0 0 Z" stroke="none" fill="#a09d9d"/>
      </g>
      <circle id="Ellipse_16" data-name="Ellipse 16" cx="1.25" cy="1.25" r="1.25" transform="translate(887 -355)" fill="#fff"/>
      <circle id="Ellipse_17" data-name="Ellipse 17" cx="1" cy="1" r="1" transform="translate(897 -353)" fill="#fff"/>
      <circle id="Ellipse_18" data-name="Ellipse 18" cx="1.5" cy="1.5" r="1.5" transform="translate(892 -349)" fill="#fff"/>
      <line id="Line_10" data-name="Line 10" y1="23" x2="14" transform="translate(898.5 -360.5)" fill="none" stroke="#fff" stroke-linecap="round" stroke-width="0.5"/>
      <line id="Line_11" data-name="Line 11" y1="6" x2="4" transform="translate(912.5 -366.5)" fill="none" stroke="#a09d9d" stroke-linecap="round" stroke-width="0.5"/>
      <circle id="Ellipse_19" data-name="Ellipse 19" cx="0.85" cy="0.85" r="0.85" transform="translate(894 -343)" fill="#fff"/>
    </g>
    <g id="Grey_Shots_Icon" data-name="Grey Shots Icon" transform="translate(567.826 -932.793)" opacity="0.9">
      <g id="Path_19" data-name="Path 19" transform="translate(-1.132 -8.97)" fill="#fff">
        <path d="M 31.14420318603516 39.88413238525391 L 9.550492286682129 39.88413238525391 C 9.208598136901855 36.69597625732422 7.672056198120117 23.38494682312012 5.201511383056641 16.78157043457031 C 4.157447814941406 13.9909610748291 3.595026254653931 12.46432876586914 3.292354822158813 11.62944889068604 L 37.49747085571289 11.53970623016357 C 37.1722297668457 12.3581485748291 36.53691864013672 13.88810443878174 35.29765319824219 16.74600028991699 C 33.94658279418945 19.86173057556152 32.82891082763672 24.82666015625 31.9757022857666 31.50288009643555 C 31.4975528717041 35.24423599243164 31.2415771484375 38.50149536132812 31.14420318603516 39.88413238525391 Z" stroke="none"/>
        <path d="M 36.38056945800781 12.29263305664062 L 4.363998413085938 12.37663269042969 C 4.696304321289062 13.27991485595703 5.185108184814453 14.59740829467773 5.903949737548828 16.51876449584961 C 8.257148742675781 22.80844688415527 9.76617431640625 35.03963088989258 10.22283172607422 39.13413238525391 L 30.4472599029541 39.13413238525391 C 30.57124710083008 37.50550079345703 30.8193302154541 34.63483810424805 31.23174095153809 31.40781211853027 C 32.09391021728516 24.66150283813477 33.23036956787109 19.628173828125 34.60954284667969 16.4476318359375 C 35.45102310180664 14.50707244873047 36.00970458984375 13.18803024291992 36.38056945800781 12.29263305664062 M 38.56499481201172 10.72884368896484 C 38.615234375 10.72877502441406 38.44191360473633 11.3801383972168 35.98573303222656 17.04438400268555 C 32.79572296142578 24.40093231201172 31.84606170654297 40.63413238525391 31.84606170654297 40.63413238525391 L 8.874641418457031 40.63413238525391 C 8.874641418457031 40.63413238525391 7.255451202392578 24.4117431640625 4.499061584472656 17.04438400268555 C 2.42218017578125 11.49322509765625 2.199874877929688 10.80893707275391 2.216487884521484 10.80893707275391 C 2.221923828125 10.80893707275391 2.2529296875 10.88217163085938 2.2529296875 10.88217163085938 L 38.51501083374023 10.78703308105469 C 38.51501083374023 10.78703308105469 38.54998397827148 10.72886276245117 38.56499481201172 10.72884368896484 Z" stroke="none" fill="#a09d9d"/>
      </g>
      <g id="Path_20" data-name="Path 20" transform="translate(1.616 -5.838)" fill="#a09d9d">
        <path d="M 28.2260799407959 36.38943099975586 L 7.447493076324463 36.38943099975586 C 7.43648099899292 35.55507659912109 7.388044834136963 33.759033203125 7.182821750640869 31.55502891540527 C 6.920241832733154 28.73509979248047 6.339541912078857 24.64430999755859 5.064231872558594 21.16981887817383 C 3.910330772399902 18.02612686157227 3.716684103012085 16.76008987426758 3.709809541702271 16.27354049682617 L 3.805611848831177 16.33355903625488 L 4.063074111938477 15.99119663238525 C 4.121400356292725 15.94454765319824 4.532021522521973 15.65751934051514 5.791641712188721 15.65751934051514 C 6.756941795349121 15.65751934051514 7.971012115478516 15.82433891296387 9.400112152099609 16.15333938598633 L 9.432782173156738 16.16086006164551 L 9.466161727905273 16.16394996643066 C 10.15045166015625 16.22732925415039 10.72953224182129 16.36069869995117 11.34261226654053 16.50189971923828 C 12.24128150939941 16.7088794708252 13.17054176330566 16.92289924621582 14.47312164306641 16.92289924621582 C 16.24391746520996 16.92289924621582 18.36764335632324 16.5239429473877 21.15579223632812 15.66731548309326 C 22.68685531616211 15.33499526977539 24.17057228088379 15.16651916503906 25.56619262695312 15.16651916503906 C 28.82953262329102 15.16651916503906 30.56102180480957 16.09437942504883 30.57813262939453 16.1037483215332 L 30.62324142456055 16.12845993041992 C 30.73661804199219 16.32522583007812 31.1813907623291 17.48116683959961 30.32652282714844 22.67499923706055 C 29.3331356048584 28.71044158935547 28.45990943908691 34.75333023071289 28.2260799407959 36.38943099975586 Z" stroke="none"/>
        <path d="M 25.56623077392578 15.66651916503906 L 25.56624031066895 15.66651916503906 C 24.21212005615234 15.66658020019531 22.77101898193359 15.82975006103516 21.28233337402344 16.15150833129883 C 18.45522308349609 17.01883316040039 16.29073524475098 17.42289733886719 14.47311973571777 17.42289733886719 C 13.11371040344238 17.42289733886719 12.1131591796875 17.19245910644531 11.23039054870605 16.98915100097656 C 10.63412094116211 16.8518180847168 10.07092094421387 16.72211074829102 9.420049667358398 16.66181945800781 L 9.353279113769531 16.6556282043457 L 9.287939071655273 16.64059066772461 C 7.895410537719727 16.32001876831055 6.719089508056641 16.15748977661133 5.791679382324219 16.15752029418945 C 4.906538009643555 16.15755081176758 4.520872116088867 16.30826950073242 4.408046722412109 16.36435699462891 L 4.236772537231445 16.59208297729492 C 4.312145233154297 17.17472076416016 4.59071159362793 18.42869567871094 5.533609390258789 20.99753952026367 C 7.543737411499023 26.47399139404297 7.884788513183594 33.33409881591797 7.940418243408203 35.88942718505859 L 27.79265594482422 35.88942718505859 C 28.09394264221191 33.79436492919922 28.91193771362305 28.19078826904297 29.83316040039062 22.59379005432129 C 30.54272079467773 18.28276824951172 30.33078193664551 16.86771774291992 30.22632217407227 16.48869323730469 C 29.80545234680176 16.29721832275391 28.2171745300293 15.66640853881836 25.56623077392578 15.66651916503906 M 25.56619071960449 14.66651916503906 C 29.02485466003418 14.66636276245117 30.81987953186035 15.66608047485352 30.81987953186035 15.66608047485352 C 30.81987953186035 15.66608047485352 30.81990814208984 15.66608047485352 30.81996536254883 15.66608047485352 C 30.83124923706055 15.66607666015625 31.98404693603516 15.6832160949707 30.81987953186035 22.75619888305664 C 29.65000915527344 29.86388969421387 28.65998077392578 36.88942718505859 28.65998077392578 36.88942718505859 L 6.950399398803711 36.88942718505859 C 6.950399398803711 36.88942718505859 7.027769088745117 27.97041893005371 4.594850540161133 21.34210968017578 C 2.704963684082031 16.19328308105469 3.200342178344727 15.61863708496094 3.51563835144043 15.61863708496094 C 3.606235504150391 15.61863708496094 3.68195915222168 15.66608047485352 3.68195915222168 15.66608047485352 C 3.68195915222168 15.66608047485352 4.064403533935547 15.15758514404297 5.791635513305664 15.15752410888672 C 6.655410766601562 15.15749359130859 7.855268478393555 15.28461456298828 9.512279510498047 15.66608047485352 C 11.25385475158691 15.82740020751953 12.35415649414062 16.42289733886719 14.47311973571777 16.42289733886719 C 15.96262550354004 16.42289733886719 17.95516204833984 16.12892532348633 21.02898025512695 15.18320846557617 C 22.76607131958008 14.80463027954102 24.28127861022949 14.66657638549805 25.56619071960449 14.66651916503906 Z" stroke="none" fill="#a09d9d"/>
      </g>
    </g>
    <path id="Path_30" data-name="Path 30" d="M9,0" transform="translate(594.5 -931.5)" fill="none" stroke="#707070" stroke-width="1" opacity="0.9"/>
    <path id="Path_31" data-name="Path 31" d="M-1.073,1.754H9.28V2H-.923Z" transform="translate(596 -933)" fill="#fff" opacity="0.9"/>
    <path id="Path_32" data-name="Path 32" d="M3.442,2.018l6.238-.242-.115.211L3.406,2.2Z" transform="matrix(0.407, -0.914, 0.914, 0.407, 599.72, -923.137)" fill="#fff" opacity="0.9"/>
    <path id="Path_33" data-name="Path 33" d="M-1.537-.079,9.437,1.508l.1.183-11.2-1.7Z" transform="matrix(0.469, -0.883, 0.883, 0.469, 591.52, -948.381)" fill="#fff" opacity="0.9"/>
    <path id="Path_34" data-name="Path 34" d="M-1.252,1.215l2.788.149.067.148L-1.249,1.34Z" transform="matrix(0.017, -1, 1, 0.017, 597.269, -903.051)" fill="#fff" opacity="0.9"/>
  </g>
</svg>
