<svg xmlns="http://www.w3.org/2000/svg" width="44.843" height="70.847" viewBox="0 0 44.843 70.847">
  <g id="Grey-Cocktail-Icon" transform="translate(-874.836 366.847)">
    <path id="Path_28" data-name="Path 28" d="M876.336-379.867h43.843L897.74-349.69Z" transform="translate(-1 20)" fill="#a09d9d" stroke="#a09d9d" stroke-linecap="round" stroke-linejoin="round" stroke-width="1"/>
    <g id="Rectangle_29" data-name="Rectangle 29" transform="translate(896 -331)" fill="#fff" stroke="#a09d9d" stroke-width="2">
      <rect width="2" height="34" stroke="none"/>
      <rect x="1" y="1" height="32" fill="none"/>
    </g>
    <g id="Path_29" data-name="Path 29" transform="translate(881 -298)" fill="#fff" stroke-linecap="round" stroke-linejoin="round">
      <path d="M0,0H32V2H0Z" stroke="none"/>
      <path d="M 0 0 L 32 0 L 32 2 L 0 2 L 0 0 Z" stroke="none" fill="#a09d9d"/>
    </g>
    <circle id="Ellipse_16" data-name="Ellipse 16" cx="0.75" cy="0.75" r="0.75" transform="translate(887 -355)" fill="#fff"/>
    <circle id="Ellipse_17" data-name="Ellipse 17" cx="1.5" cy="1.5" r="1.5" transform="matrix(0.998, -0.07, 0.07, 0.998, 896.934, -352.893)" fill="#fff"/>
    <circle id="Ellipse_18" data-name="Ellipse 18" cx="1" cy="1" r="1" transform="translate(892 -349)" fill="#fff"/>
    <line id="Line_10" data-name="Line 10" y1="23" x2="14" transform="translate(898.5 -360.5)" fill="none" stroke="#fff" stroke-linecap="round" stroke-width="0.5"/>
    <line id="Line_11" data-name="Line 11" y1="6" x2="4" transform="translate(912.5 -366.5)" fill="none" stroke="#a09d9d" stroke-linecap="round" stroke-width="0.5"/>
    <circle id="Ellipse_19" data-name="Ellipse 19" cx="0.85" cy="0.85" r="0.85" transform="translate(894 -343)" fill="#fff"/>
  </g>
</svg>
