<svg xmlns="http://www.w3.org/2000/svg" width="47.978" height="70.472" viewBox="0 0 47.978 70.472">
  <g id="Grey-Wine-Icon" transform="translate(-728.461 464)">
    <path id="Path_24" data-name="Path 24" d="M729.762-395.28c3.632.778,19.347,1.515,34.365.844a68.992,68.992,0,0,0,9.673-.844c1.273-.178,1.928-.38,2.083-.917.659-1.455-12.309-2.868-16.09-5.45-4.469-3.052-5.482-10.185-5.482-10.185h-2.474a15.2,15.2,0,0,1-6.173,10.185C740.053-397.689,730.144-398.238,729.762-395.28Z" fill="#a09d9d" stroke="#a09d9d" stroke-width="1"/>
    <rect id="Rectangle_28" data-name="Rectangle 28" width="3.2" height="23" transform="translate(751.5 -435)" fill="#a09d9d"/>
    <g id="Path_25" data-name="Path 25" transform="translate(729 -464)" fill="none">
      <path d="M0,0H47s3.339,21.75-8.411,29-22.58,5.32-32.228-1.93S0,0,0,0Z" stroke="none"/>
      <path d="M 0.8695869445800781 1 C 0.6621360778808594 2.638507843017578 0.2775497436523438 6.487045288085938 0.56353759765625 10.78903007507324 C 0.7829780578613281 14.09008979797363 1.348384857177734 17.00665092468262 2.244068145751953 19.45771026611328 C 3.336105346679688 22.44615936279297 4.92364501953125 24.73834991455078 6.96258544921875 26.27062034606934 C 9.678955078125 28.31197929382324 12.44316482543945 29.87693977355957 15.17844581604004 30.92201995849609 C 18.03659629821777 32.0140380859375 20.94162559509277 32.56774139404297 23.81285667419434 32.56774139404297 C 28.51738739013672 32.56774139404297 33.31224822998047 31.08105087280273 38.06424713134766 28.14896011352539 C 40.56300735473633 26.60717964172363 42.53856658935547 24.21146011352539 43.93605804443359 21.02835083007812 C 45.07922744750977 18.42450904846191 45.84152603149414 15.29365921020508 46.20176696777344 11.72277069091797 C 46.67742919921875 7.007902145385742 46.31682586669922 2.753238677978516 46.11891555786133 1 L 0.8695869445800781 1 M -3.814697265625e-06 0 L 46.99999618530273 0 C 46.99999618530273 0 50.33935546875 21.75 38.58935546875 29 C 33.483154296875 32.150634765625 28.5500602722168 33.56774139404297 23.81285858154297 33.56774139404297 C 17.6491756439209 33.56774139404297 11.81670761108398 31.16940498352051 6.36181640625 27.07003974914551 C -3.2855224609375 19.82003974914551 -3.814697265625e-06 0 -3.814697265625e-06 0 Z" stroke="none" fill="#a09d9d"/>
    </g>
    <g id="Path_26" data-name="Path 26" transform="translate(729 -461.713)" fill="#a09d9d">
      <path d="M 23.30126953125 30.78036499023438 C 20.67386054992676 30.78036499023438 18.07765960693359 30.30583572387695 15.36432933807373 29.32966613769531 C 12.86843013763428 28.43171501159668 10.25700950622559 27.09948539733887 7.38086986541748 25.25685501098633 C 5.197439670562744 23.85800552368164 3.477029800415039 22.09820556640625 2.267429828643799 20.02632522583008 C 1.299439668655396 18.3682861328125 0.6524597406387329 16.50484657287598 0.3444597125053406 14.4877758026123 C -0.04793040081858635 11.91806983947754 0.2144627422094345 9.758008003234863 0.3756640553474426 8.815960884094238 C 1.963708162307739 9.232019424438477 6.977200031280518 10.36925601959229 14.32722949981689 10.36925601959229 C 19.4905891418457 10.36925601959229 24.73101043701172 9.800405502319336 29.90293884277344 8.678515434265137 C 35.00532913208008 7.571695804595947 39.07151794433594 7.010495662689209 41.98855972290039 7.010495662689209 C 44.28802108764648 7.010495662689209 45.40171051025391 7.362895488739014 45.93106842041016 7.658525943756104 C 46.37936782836914 7.908875942230225 46.44956588745117 8.139744758605957 46.45926284790039 8.18480396270752 L 46.45687103271484 8.219965934753418 L 46.46884155273438 8.283035278320312 C 46.47433853149414 8.312345504760742 47.01739883422852 11.3011360168457 46.14944076538086 15.03713607788086 C 45.64257049560547 17.21884536743164 44.75970840454102 19.22756576538086 43.5253791809082 21.00747489929199 C 41.98210144042969 23.23288536071777 39.87841796875 25.10952568054199 37.27275848388672 26.58527565002441 C 32.28857803344727 29.40813636779785 27.71846008300781 30.78036499023438 23.30126953125 30.78036499023438 Z" stroke="none"/>
      <path d="M 41.98857879638672 7.510496139526367 C 39.10683059692383 7.510555267333984 35.07629013061523 8.067926406860352 30.00893020629883 9.167144775390625 C 24.80224990844727 10.29658508300781 19.52615928649902 10.86925506591797 14.32722854614258 10.86925506591797 C 7.619007110595703 10.86925506591797 2.827648162841797 9.925758361816406 0.7868576049804688 9.434247970581055 C 0.6457176208496094 10.49748039245605 0.5176658630371094 12.30973243713379 0.8387184143066406 14.41230583190918 C 1.137168884277344 16.3668155670166 1.763130187988281 18.17083549499512 2.69921875 19.77423477172852 C 3.868537902832031 21.77712631225586 5.534420013427734 23.48009490966797 7.650588989257812 24.83584594726562 C 10.49480819702148 26.65802574157715 13.07336044311523 27.97407531738281 15.53359031677246 28.85918617248535 C 18.19170951843262 29.81549453735352 20.73253059387207 30.28036499023438 23.30125999450684 30.28036499023438 C 27.62978935241699 30.28036499023438 32.11930084228516 28.92937469482422 37.02635192871094 26.15020561218262 C 39.5578498840332 24.71646499633789 41.60131072998047 22.89736557006836 43.09997940063477 20.74344635009766 C 44.2982292175293 19.02129554748535 45.15726852416992 17.07657623291016 45.65322113037109 14.96329498291016 C 46.50754928588867 11.32297515869141 45.98265838623047 8.403474807739258 45.97758865356445 8.376205444335938 L 45.96421051025391 8.305648803710938 C 45.84558486938477 8.168418884277344 45.11088943481445 7.510433197021484 41.98857879638672 7.510496139526367 M 41.98855972290039 6.510498046875 C 47.07440567016602 6.510395050048828 46.96007919311523 8.189876556396484 46.96007919311523 8.189876556396484 C 46.96007919311523 8.189876556396484 49.26916122436523 20.36557579040527 37.51915740966797 27.02034568786621 C 32.31686401367188 29.96673965454102 27.69363594055176 31.28036499023438 23.3012638092041 31.28036499023438 C 17.77295684814453 31.28036499023438 12.60974502563477 29.20061111450195 7.111141204833984 25.67786598205566 C -2.756229400634766 19.35621643066406 -0.01025009155273438 8.189876556396484 -0.01025009155273438 8.189876556396484 C -0.01025009155273438 8.189876556396484 5.496414184570312 9.869256973266602 14.32722854614258 9.869256973266602 C 18.74344635009766 9.869256973266602 23.98979187011719 9.449565887451172 29.79693984985352 8.189876556396484 C 35.60301971435547 6.930419921875 39.44586944580078 6.510549545288086 41.98855972290039 6.510498046875 Z" stroke="none" fill="#a09d9d"/>
    </g>
  </g>
</svg>
