<svg id="Grey-Shots-Icon" xmlns="http://www.w3.org/2000/svg" width="60.366" height="54.51" viewBox="0 0 60.366 54.51">
  <g id="Path_19" data-name="Path 19" transform="translate(-1.132 -8.97)" fill="#fff">
    <path d="M 48.52450180053711 62.73062133789062 L 13.8526725769043 62.73062133789062 C 13.66262435913086 60.75909805297852 13.05741691589355 54.74951934814453 12.10145473480225 47.75285339355469 C 10.5338249206543 36.27947235107422 8.821274757385254 27.75878143310547 7.011374473571777 22.42746162414551 C 5.2372145652771 17.2014217376709 3.776714563369751 13.16510200500488 2.787764549255371 10.75485229492188 C 2.626154184341431 10.3609790802002 2.479634284973145 10.01589107513428 2.348464250564575 9.720122337341309 L 60.27337265014648 9.720122337341309 C 59.55100631713867 11.2565336227417 58.06094360351562 14.69755172729492 55.03264617919922 22.39395141601562 C 52.93202590942383 27.73266220092773 51.19112396240234 36.26735305786133 49.85828399658203 47.76097106933594 C 49.04978942871094 54.73291015625 48.64701843261719 60.72862243652344 48.52450180053711 62.73062133789062 Z" stroke="none"/>
    <path d="M 3.481613159179688 10.47012329101562 L 3.481624603271484 10.47015380859375 C 4.490566253662109 12.92913055419922 5.917083740234375 16.87103271484375 7.721553802490234 22.18635177612305 C 9.546825408935547 27.56293106079102 11.27044296264648 36.13058090209961 12.84454345703125 47.65132141113281 C 13.71010589599609 53.98631286621094 14.28887176513672 59.51576995849609 14.53292083740234 61.98062133789062 L 47.82035827636719 61.98062133789062 C 47.98220443725586 59.48471069335938 48.38251495361328 53.9761962890625 49.11327362060547 47.6745719909668 C 50.45359420776367 36.11647415161133 52.21034240722656 27.51845169067383 54.33472442626953 22.11933135986328 C 56.40708923339844 16.85243606567383 58.04706954956055 12.85371780395508 59.107177734375 10.47012329101562 L 3.481613159179688 10.47012329101562 M 1.131954193115234 8.970123291015625 L 61.49829483032227 8.970123291015625 C 61.49829483032227 8.970123291015625 60.7384033203125 9.941162109375 55.73056411743164 22.66855239868164 C 50.72272491455078 35.39595413208008 49.23189544677734 63.48062133789062 49.23189544677734 63.48062133789062 L 13.17019271850586 63.48062133789062 C 13.17019271850586 63.48062133789062 10.6282958984375 35.4146614074707 6.301174163818359 22.66855239868164 C 1.974063873291016 9.922451019287109 1.131954193115234 8.970123291015625 1.131954193115234 8.970123291015625 Z" stroke="none" fill="#a09d9d"/>
  </g>
  <g id="Path_20" data-name="Path 20" transform="translate(1.208 -3.215)" fill="#a09d9d">
    <path d="M 45.59710311889648 57.22505569458008 L 11.54099273681641 57.22505569458008 C 11.38273906707764 55.5556640625 10.78677082061768 49.50173187255859 9.823208808898926 42.40677642822266 C 8.795947074890137 34.84272003173828 7.131307601928711 24.53587341308594 5.000792026519775 18.04951858520508 C 5.334275722503662 17.83002471923828 6.191370487213135 17.43859672546387 8.061788558959961 17.43859672546387 C 9.751458168029785 17.43859672546387 11.87046909332275 17.75468635559082 14.35994815826416 18.37807655334473 L 14.39516830444336 18.38689613342285 L 14.43127822875977 18.39053726196289 C 15.63345909118652 18.51166725158691 16.64287948608398 18.76454734802246 17.71156883239746 19.03227615356445 C 19.24456787109375 19.41632652282715 20.82975769042969 19.81345558166504 23.04086875915527 19.81345558166504 C 26.06594657897949 19.81345558166504 29.7045841217041 19.06807708740234 34.48952865600586 17.4681568145752 C 37.15849685668945 16.83701705932617 39.74597549438477 16.51706695556641 42.18092727661133 16.51706695556641 C 45.17738723754883 16.51706695556641 47.41238021850586 17.00770568847656 48.75965881347656 17.41929626464844 C 50.21891021728516 17.8651065826416 50.98004913330078 18.31675720214844 50.9875602722168 18.32126617431641 L 51.45737838745117 18.60312652587891 L 51.69612884521484 18.110107421875 C 51.79074096679688 17.91376304626465 51.88695907592773 17.71541595458984 51.98385620117188 17.51694107055664 C 51.95890808105469 17.58088874816895 51.93371963500977 17.64537811279297 51.90807723999023 17.71093559265137 C 50.78871917724609 20.57300567626953 49.75911712646484 24.46003723144531 48.8478889465332 29.26405715942383 C 48.12125015258789 33.09488677978516 47.46688842773438 37.51780700683594 46.90298843383789 42.40996551513672 C 46.08742904663086 49.48550415039062 45.6978645324707 55.52883911132812 45.59710311889648 57.22505569458008 Z" stroke="none"/>
    <path d="M 42.18097686767578 17.01706695556641 C 39.79093170166016 17.01718521118164 37.24954223632812 17.33089447021484 34.62657928466797 17.94953918457031 C 29.79948425292969 19.56213760375977 26.11692047119141 20.31345748901367 23.04086685180664 20.31345748901367 C 20.76808929443359 20.31345748901367 19.1524772644043 19.90871810913086 17.59006881713867 19.51729583740234 C 16.53948974609375 19.25409698486328 15.54718017578125 19.0055046081543 14.38114929199219 18.88801574707031 L 14.30891799926758 18.8807373046875 L 14.23848724365234 18.86310577392578 C 11.78841781616211 18.24957656860352 9.710277557373047 17.93852615356445 8.061817169189453 17.93859481811523 C 6.767337799072266 17.93864059448242 6.014339447021484 18.13220977783203 5.606803894042969 18.29801177978516 C 7.280300140380859 23.54949188232422 8.864242553710938 31.63018989562988 10.31866836547852 42.33948516845703 C 11.21039581298828 48.90552520751953 11.78782272338867 54.58237075805664 11.99534225463867 56.72505569458008 L 45.12664031982422 56.72505569458008 C 45.26195526123047 54.55205154418945 45.652587890625 48.89146423339844 46.40628051757812 42.35270690917969 C 47.59552764892578 32.03524017333984 49.12071990966797 24.15145874023438 50.94557571411133 18.88041687011719 L 50.73119735717773 18.75054550170898 C 50.72390747070312 18.7462158203125 49.98543930053711 18.312255859375 48.56952667236328 17.88398742675781 C 47.26173782348633 17.48842620849609 45.091796875 17.01692581176758 42.18097686767578 17.01706695556641 M 2.556056976318359 12.36415863037109 C 2.556114196777344 12.36432647705078 3.022228240966797 13.74564361572266 4.420806884765625 17.89029312133789 C 4.373546600341797 17.750244140625 2.555946350097656 12.36382675170898 2.556056976318359 12.36415863037109 Z M 54.24045181274414 12.37226867675781 C 54.40773010253906 12.37193298339844 53.99330902099609 13.75196075439453 52.37372970581055 17.8930549621582 C 47.51556777954102 30.31481552124023 46.06929779052734 57.72505569458008 46.06929779052734 57.72505569458008 L 11.08544921875 57.72505569458008 C 11.08544921875 57.72505569458008 8.619518280029297 30.33307647705078 4.421737670898438 17.8930549621582 C 4.421737670898438 17.8930549621582 5.081607818603516 16.9387092590332 8.061782836914062 16.93859481811523 C 9.552143096923828 16.93853759765625 11.62238311767578 17.1771240234375 14.48139953613281 17.8930549621582 C 17.486328125 18.19582748413086 19.38478851318359 19.31345748901367 23.04086303710938 19.31345748901367 C 25.61087226867676 19.31345748901367 29.04882431030273 18.76172637939453 34.35240936279297 16.98679733276367 C 37.34959411621094 16.27627944946289 39.96393585205078 16.01717758178711 42.18092727661133 16.01707077026367 C 48.14852905273438 16.01678466796875 51.24568939208984 17.8930549621582 51.24568939208984 17.8930549621582 C 51.24568939208984 17.8930549621582 53.90595245361328 12.37294387817383 54.24045181274414 12.37226867675781 Z M 4.420806884765625 17.89029312133789 C 4.42120361328125 17.89147567749023 4.421470642089844 17.89226150512695 4.421615600585938 17.8926887512207 C 4.421482086181641 17.89229583740234 4.421062469482422 17.89105224609375 4.420806884765625 17.89029312133789 Z M 4.421737670898438 17.8930549621582 C 4.421630859375 17.89274215698242 4.421623229980469 17.89271545410156 4.421615600585938 17.8926887512207 Z M 4.421638488769531 17.89276504516602 C 4.421688079833984 17.89291381835938 4.421722412109375 17.89300537109375 4.421733856201172 17.89303970336914 C 4.421737670898438 17.8930549621582 4.421737670898438 17.8930549621582 4.421737670898438 17.8930549621582 Z M 4.421737670898438 17.8930549621582 C 4.421733856201172 17.89303970336914 4.421733856201172 17.89303970336914 4.421733856201172 17.89303970336914 Z M 4.421733856201172 17.89303970336914 C 4.421737670898438 17.89305114746094 4.421737670898438 17.8930549621582 4.421737670898438 17.8930549621582 Z" stroke="none" fill="#a09d9d"/>
  </g>
  <g id="Rectangle_17" data-name="Rectangle 17" transform="translate(16.373 20.05)" fill="#fff" stroke="#a09d9d" stroke-width="1">
    <rect width="2" height="2" stroke="none"/>
    <rect x="0.5" y="0.5" width="1" height="1" fill="none"/>
  </g>
</svg>
