<svg xmlns="http://www.w3.org/2000/svg" width="37.146" height="76.204" viewBox="0 0 37.146 76.204">
  <g id="Group_59" data-name="Group 59" transform="translate(-1715 616.271)">
    <g id="Group_58" data-name="Group 58">
      <g id="Group_45" data-name="Group 45" transform="matrix(0.94, 0.342, -0.342, 0.94, -34.627, -477.885)">
        <g id="Polygon_4" data-name="Polygon 4" transform="translate(1651 -667.088) rotate(180)" fill="#a09d9d">
          <path d="M 10.19576930999756 20.90000534057617 L 5.804229736328125 20.90000534057617 C 4.502229690551758 20.90000534057617 3.331769466400146 20.28513526916504 2.592939615249634 19.21306419372559 C 1.854119539260864 18.14099502563477 1.696219563484192 16.82831573486328 2.159729480743408 15.61161518096924 L 4.355499744415283 9.847724914550781 C 4.945679664611816 8.298504829406738 6.342169284820557 7.336104869842529 7.999999523162842 7.336104869842529 C 9.657829284667969 7.336104869842529 11.05431938171387 8.298504829406738 11.64449977874756 9.847724914550781 L 13.84026908874512 15.61161518096924 C 14.30377960205078 16.82831573486328 14.1458797454834 18.14099502563477 13.40705966949463 19.21306419372559 C 12.66822910308838 20.28513526916504 11.49776935577393 20.90000534057617 10.19576930999756 20.90000534057617 Z" stroke="none"/>
          <path d="M 7.999999523162842 7.436094284057617 C 6.384669303894043 7.436094284057617 5.023989677429199 8.373815536499023 4.448949813842773 9.883325576782227 L 2.253179550170898 15.64721488952637 C 1.801559448242188 16.83271408081055 1.955409049987793 18.11173629760742 2.67527961730957 19.15631484985352 C 3.395159721374512 20.20089530944824 4.535619735717773 20.79999542236328 5.804229736328125 20.79999542236328 L 10.19576930999756 20.79999542236328 C 11.46437931060791 20.79999542236328 12.60483932495117 20.20089530944824 13.32471942901611 19.15631484985352 C 14.04458999633789 18.11173629760742 14.1984395980835 16.83271408081055 13.74681949615479 15.64721488952637 L 11.55105018615723 9.883325576782227 C 10.97599983215332 8.373815536499023 9.615320205688477 7.436094284057617 7.999999523162842 7.436094284057617 M 7.999999523162842 7.236099243164062 C 9.541862487792969 7.236099243164062 11.08372497558594 8.09477424621582 11.73794937133789 9.812124252319336 L 13.93371963500977 15.57601451873779 C 14.93110942840576 18.19415473937988 12.99744987487793 20.9999942779541 10.19576930999756 20.9999942779541 L 5.804229736328125 20.9999942779541 C 3.002549171447754 20.9999942779541 1.068889617919922 18.19415473937988 2.066279411315918 15.57601451873779 L 4.262049674987793 9.812124252319336 C 4.916274070739746 8.09477424621582 6.458136558532715 7.236099243164062 7.999999523162842 7.236099243164062 Z" stroke="none" fill="#a09d9d"/>
        </g>
        <g id="Ellipse_40" data-name="Ellipse 40" transform="translate(1639 -687.088)" fill="#fff" stroke="#fff" stroke-width="1">
          <circle cx="0.35" cy="0.35" r="0.35" stroke="none"/>
          <circle cx="0.35" cy="0.35" r="0.15" fill="none"/>
        </g>
        <g id="Path_91" data-name="Path 91" transform="translate(1642.279 -689.547)" fill="#a09d9d">
          <path d="M 0.09999556839466095 3.375720262527466 L 0.09999556839466095 -0.5464638471603394 L 2.351019144058228 -1.389456152915955 L 3.32562255859375 1.546013116836548 L 0.09999556839466095 3.375720262527466 Z" stroke="none"/>
          <path d="M 2.288841247558594 -1.259387493133545 L 0.1999955177307129 -0.4771296977996826 L 0.1999955177307129 3.204028606414795 L 3.204837799072266 1.49955940246582 L 2.288841247558594 -1.259387493133545 M 2.413205623626709 -1.519527912139893 L 3.446415662765503 1.592462062835693 L -4.529953002929688e-06 3.547411918640137 L -4.529953002929688e-06 -0.6157979965209961 L 2.413205623626709 -1.519527912139893 Z" stroke="none" fill="#a09d9d"/>
        </g>
        <g id="Path_92" data-name="Path 92" transform="matrix(0.259, 0.966, -0.966, 0.259, 1642.962, -693.72)" fill="#a09d9d">
          <path d="M 2.582702398300171 2.716969966888428 L 0.2612634599208832 0.9256937503814697 L 8.536530494689941 0.1283813267946243 L 6.059179306030273 2.382011413574219 L 2.939736366271973 2.682572603225708 L 2.582702398300171 2.716969966888428 Z" stroke="none"/>
          <path d="M 8.246804237365723 0.2567601203918457 L 0.5225305557250977 1.000985026359558 L 2.612478256225586 2.613637447357178 L 2.93014669418335 2.583032608032227 L 6.016491889953613 2.2856605052948 L 8.246804237365723 0.2567601203918457 M 8.82625675201416 2.622604370117188e-06 L 6.101866722106934 2.478362560272217 L 2.949326515197754 2.782112598419189 L 2.552926540374756 2.820302486419678 L -3.814697265625e-06 0.8504025936126709 L 8.82625675201416 2.622604370117188e-06 Z" stroke="none" fill="#a09d9d"/>
        </g>
        <g id="Path_93" data-name="Path 93" transform="matrix(-0.174, 0.985, -0.985, -0.174, 1647.523, -691.355)" fill="#a09d9d">
          <path d="M 4.762269973754883 3.841103792190552 L 2.540992736816406 2.945080757141113 L 2.280146360397339 2.839860677719116 L 0.2987808287143707 0.2283526808023453 L 6.188694477081299 2.604232549667358 L 4.762269973754883 3.841103792190552 Z" stroke="none"/>
          <path d="M 0.5975551605224609 0.4567031860351562 L 2.343136310577393 2.757439136505127 L 2.578402757644653 2.852340698242188 L 4.742967128753662 3.725486993789673 L 5.999645709991455 2.635804653167725 L 0.5975551605224609 0.4567031860351562 M 2.86102294921875e-06 7.152557373046875e-07 L 6.377742767333984 2.57266092300415 L 4.781572818756104 3.95672082901001 L 2.503582715988159 3.037820816040039 L 2.21715259552002 2.922280788421631 L 2.86102294921875e-06 7.152557373046875e-07 Z" stroke="none" fill="#a09d9d"/>
        </g>
        <g id="Path_94" data-name="Path 94" transform="translate(1639.725 -684.051)" fill="#fff">
          <path d="M 0.3499999940395355 0.5 C 0.2672899961471558 0.5 0.199999988079071 0.4327099919319153 0.199999988079071 0.3499999940395355 C 0.199999988079071 0.2672899961471558 0.2672899961471558 0.199999988079071 0.3499999940395355 0.199999988079071 C 0.4327099919319153 0.199999988079071 0.5 0.2672899961471558 0.5 0.3499999940395355 C 0.5 0.4327099919319153 0.4327099919319153 0.5 0.3499999940395355 0.5 Z" stroke="none"/>
          <path d="M 0.3499999940395355 0 C 0.5432999730110168 0 0.699999988079071 0.1567000150680542 0.699999988079071 0.3499999940395355 C 0.699999988079071 0.5432999730110168 0.5432999730110168 0.699999988079071 0.3499999940395355 0.699999988079071 C 0.1567000150680542 0.699999988079071 0 0.5432999730110168 0 0.3499999940395355 C 0 0.1567000150680542 0.1567000150680542 0 0.3499999940395355 0 Z" stroke="none" fill="#fff"/>
        </g>
        <g id="Ellipse_43" data-name="Ellipse 43" transform="translate(1646 -684.088)" fill="#fff" stroke="#fff" stroke-width="1">
          <circle cx="0.35" cy="0.35" r="0.35" stroke="none"/>
          <circle cx="0.35" cy="0.35" r="0.15" fill="none"/>
        </g>
        <g id="Ellipse_44" data-name="Ellipse 44" transform="translate(1646 -681.088)" fill="#fff" stroke="#fff" stroke-width="1">
          <circle cx="0.35" cy="0.35" r="0.35" stroke="none"/>
          <circle cx="0.35" cy="0.35" r="0.15" fill="none"/>
        </g>
        <g id="Ellipse_45" data-name="Ellipse 45" transform="translate(1643 -682.088)" fill="#fff" stroke="#fff" stroke-width="1">
          <circle cx="0.35" cy="0.35" r="0.35" stroke="none"/>
          <circle cx="0.35" cy="0.35" r="0.15" fill="none"/>
        </g>
        <g id="Ellipse_46" data-name="Ellipse 46" transform="translate(1640 -680.088)" fill="#fff" stroke="#fff" stroke-width="1">
          <circle cx="0.35" cy="0.35" r="0.35" stroke="none"/>
          <circle cx="0.35" cy="0.35" r="0.15" fill="none"/>
        </g>
        <g id="Ellipse_47" data-name="Ellipse 47" transform="translate(1645 -678.088)" fill="#fff" stroke="#fff" stroke-width="1">
          <circle cx="0.35" cy="0.35" r="0.35" stroke="none"/>
          <circle cx="0.35" cy="0.35" r="0.15" fill="none"/>
        </g>
        <g id="Ellipse_48" data-name="Ellipse 48" transform="translate(1642 -677.088)" fill="#fff" stroke="#fff" stroke-width="0.5">
          <circle cx="0.35" cy="0.35" r="0.35" stroke="none"/>
          <circle cx="0.35" cy="0.35" r="0.1" fill="none"/>
        </g>
        <g id="Path_98" data-name="Path 98" transform="translate(1643.342 -686.148)" fill="#fff">
          <path d="M 0.3499999940395355 0.5 C 0.2672899961471558 0.5 0.199999988079071 0.4327099919319153 0.199999988079071 0.3499999940395355 C 0.199999988079071 0.2672899961471558 0.2672899961471558 0.199999988079071 0.3499999940395355 0.199999988079071 C 0.4327099919319153 0.199999988079071 0.5 0.2672899961471558 0.5 0.3499999940395355 C 0.5 0.4327099919319153 0.4327099919319153 0.5 0.3499999940395355 0.5 Z" stroke="none"/>
          <path d="M 0.3499999940395355 0 C 0.5432999730110168 0 0.699999988079071 0.1567000150680542 0.699999988079071 0.3499999940395355 C 0.699999988079071 0.5432999730110168 0.5432999730110168 0.699999988079071 0.3499999940395355 0.699999988079071 C 0.1567000150680542 0.699999988079071 0 0.5432999730110168 0 0.3499999940395355 C 0 0.1567000150680542 0.1567000150680542 0 0.3499999940395355 0 Z" stroke="none" fill="#fff"/>
        </g>
        <g id="Ellipse_51" data-name="Ellipse 51" transform="translate(1646.06 -686.745)" fill="#fff" stroke="#fff" stroke-width="1">
          <circle cx="0.35" cy="0.35" r="0.35" stroke="none"/>
          <circle cx="0.35" cy="0.35" r="0.15" fill="none"/>
        </g>
      </g>
      <g id="Rectangle_122" data-name="Rectangle 122" transform="translate(1715 -591)" fill="#a09d9d" stroke="#a09d9d" stroke-width="1">
        <rect width="20" height="44" rx="3" stroke="none"/>
        <rect x="0.5" y="0.5" width="19" height="43" rx="2.5" fill="none"/>
      </g>
      <g id="Path_96" data-name="Path 96" transform="translate(1718.629 -616.271)" fill="#a09d9d">
        <path d="M 8.247477531433105 29.50000190734863 L 4.123737812042236 29.50000190734863 C 3.127117872238159 29.50000190734863 2.196017980575562 29.22192192077637 1.501957893371582 28.71699333190918 C 0.8693644404411316 28.25678253173828 0.5150240063667297 27.66259384155273 0.5004649758338928 27.0399341583252 L 4.616518020629883 3.084672689437866 L 4.623737812042236 3.042642593383789 L 4.623737812042236 3.00000262260437 C 4.623737812042236 2.73170280456543 4.576004028320312 2.496176481246948 4.494760513305664 2.291812658309937 L 8.247477531433105 2.291812658309937 C 8.491250991821289 2.291812658309937 8.695735931396484 2.286875247955322 8.866900444030762 2.279885292053223 C 8.820182800292969 2.475286483764648 8.787637710571289 2.713156223297119 8.787637710571289 3.00000262260437 L 8.787637710571289 3.031992673873901 L 8.791717529296875 3.063722610473633 L 11.87095642089844 27.02993011474609 C 11.85998344421387 27.65623092651367 11.5052433013916 28.25431632995605 10.86925792694092 28.71699333190918 C 10.17519760131836 29.22192192077637 9.244097709655762 29.50000190734863 8.247477531433105 29.50000190734863 Z M 3.11369800567627 2.236432790756226 C 3.095069646835327 2.236432790756226 3.079517602920532 2.2353355884552 3.068488359451294 2.234213829040527 L 3.257307291030884 1.258464813232422 C 3.276973485946655 1.263835072517395 3.296506643295288 1.270784854888916 3.315754413604736 1.279234647750854 L 3.134138107299805 2.217753171920776 L 3.11369800567627 2.236432790756226 Z" stroke="none"/>
        <path d="M 8.292935371398926 2.791755676269531 C 8.277938842773438 2.791793823242188 8.262754440307617 2.791812896728516 8.247478485107422 2.791812896728516 L 5.115950107574463 2.791812896728516 C 5.121082305908203 2.859390258789062 5.123737812042236 2.928844451904297 5.123737812042236 3.000001907348633 L 5.123737812042236 3.085292816162109 L 5.109297752380371 3.169342041015625 L 1.00214958190918 27.07278060913086 C 1.064391136169434 28.12478446960449 2.46852970123291 29.00000190734863 4.123738288879395 29.00000190734863 L 8.247478485107422 29.00000190734863 C 9.91219425201416 29.00000190734863 11.32294940948486 28.11464691162109 11.37000751495361 27.05458068847656 L 8.295787811279297 3.127431869506836 L 8.287637710571289 3.063982009887695 L 8.287637710571289 3.000001907348633 C 8.287637710571289 2.928169250488281 8.289482116699219 2.858739852905273 8.292935371398926 2.791755676269531 M 3.11369514465332 1.736434936523438 C 3.121543884277344 1.736440658569336 3.150174140930176 1.740766525268555 3.193063735961914 1.751832962036133 C 3.126276969909668 1.743114471435547 3.103937149047852 1.736429214477539 3.11369514465332 1.736434936523438 Z M 9.552460670471191 1.736434936523438 C 9.80828857421875 1.736434936523438 9.287637710571289 1.925228118896484 9.287637710571289 3.000001907348633 L 12.37121772766113 27.00000381469727 C 12.37121772766113 28.65685272216797 10.52495765686035 30.00000190734863 8.247478485107422 30.00000190734863 L 4.123738288879395 30.00000190734863 C 1.846258163452148 30.00000190734863 -1.9073486328125e-06 28.65685272216797 -1.9073486328125e-06 27.00000381469727 L 4.123738288879395 3.000001907348633 C 4.123738288879395 2.087940216064453 3.433624267578125 1.813901901245117 3.193063735961914 1.751832962036133 C 3.318620681762695 1.768218994140625 3.601351737976074 1.791812896728516 4.123738288879395 1.791812896728516 L 8.247478485107422 1.791812896728516 C 9.047597885131836 1.791812896728516 9.413908004760742 1.736434936523438 9.552460670471191 1.736434936523438 Z" stroke="none" fill="#a09d9d"/>
      </g>
      <g id="Rectangle_123" data-name="Rectangle 123" transform="translate(1722.206 -616.271)" fill="#a09d9d" stroke="#a09d9d" stroke-width="1">
        <rect width="6" height="1" stroke="none"/>
        <rect x="0.5" y="0.5" width="5" fill="none"/>
      </g>
      <path id="Path_97" data-name="Path 97" d="M.75,0h22.5a.75.75,0,0,1,0,1.5H.75c-.414,0-6.235-.336-6.235-.75S.336,0,.75,0Z" transform="translate(1718.865 -576.673) rotate(90)" fill="#fff"/>
    </g>
  </g>
</svg>
