<svg xmlns="http://www.w3.org/2000/svg" width="37.613" height="71.712" viewBox="0 0 37.613 71.712">
  <g id="Grey-beer-Icon" transform="translate(-13.118 -7.1)">
    <path id="Path_58" data-name="Path 58" d="M11.395,15.6c-1.769,2.572-4.6,18.162,0,39.473s-3.031,22.136,0,25.986,30.644,5,31.719,0-4.53-5.392,0-25.986,1.481-36.932,0-39.473S13.164,13.032,11.395,15.6Z" transform="translate(4.725 -6.087)" fill="#fff" stroke="#a09d9d" stroke-width="1"/>
    <path id="Path_59" data-name="Path 59" d="M12.313,11.528c-.854,2.546-1.884,15.9,2,33.409a46.1,46.1,0,0,1,1,15.752c-.814,6.342-3.421,9.688-1.794,10.862,1.149.789,6.541,1.681,13.1,1.863,6.734.189,15.359-1.154,15.968-2.538,1.137-2.581-4.444-8.041-.6-25.939S45.5,13.677,43.992,11.528,13.167,8.982,12.313,11.528Z" transform="translate(4.725 4.292)" fill="#a09d9d" stroke="#a09d9d" stroke-width="1"/>
    <g id="Ellipse_30" data-name="Ellipse 30" transform="translate(24.575 22.911)" fill="#ff1e3c" stroke="#fff" stroke-width="1">
      <circle cx="0.4" cy="0.4" r="0.4" stroke="none"/>
      <circle cx="0.4" cy="0.4" r="0.1" fill="none"/>
    </g>
    <g id="Ellipse_31" data-name="Ellipse 31" transform="translate(28.205 67.6)" fill="#ff1e3c" stroke="#fff" stroke-width="1">
      <circle cx="0.3" cy="0.3" r="0.3" stroke="none"/>
      <circle cx="0.3" cy="0.3" r="0.2" fill="none"/>
    </g>
    <g id="Ellipse_32" data-name="Ellipse 32" transform="translate(40.35 26.469)" fill="#ff1e3c" stroke="#fff" stroke-width="1">
      <circle cx="0.3" cy="0.3" r="0.3" stroke="none"/>
      <circle cx="0.3" cy="0.3" r="0.2" fill="none"/>
    </g>
    <g id="Ellipse_33" data-name="Ellipse 33" transform="translate(23.342 38.347)" fill="#ff1e3c" stroke="#fff" stroke-width="1">
      <circle cx="0.25" cy="0.25" r="0.25" stroke="none"/>
      <circle cx="0.25" cy="0.25" r="0.25" fill="none"/>
    </g>
    <g id="Ellipse_34" data-name="Ellipse 34" transform="translate(35.519 47.886)" fill="#ff1e3c" stroke="#fff" stroke-width="1">
      <circle cx="0.4" cy="0.4" r="0.4" stroke="none"/>
      <circle cx="0.4" cy="0.4" r="0.1" fill="none"/>
    </g>
    <path id="Path_60" data-name="Path 60" d="M37.563,10.771" transform="translate(11.471)" fill="none" stroke="#050000" stroke-linecap="round" stroke-width="0.7"/>
  </g>
</svg>
