<svg xmlns="http://www.w3.org/2000/svg" width="59.75" height="74.232" viewBox="0 0 59.75 74.232">
  <g id="Group_63" data-name="Group 63" transform="translate(-1172.268 973.53)">
    <g id="Grey-sparkling-Icon" transform="translate(1171.37 -973.725)">
      <g id="Glass" transform="translate(10.401 9.694) rotate(11)">
        <path id="Path_55" data-name="Path 55" d="M1.43.142,14.279.268s3.59,19.366.5,25.741S5.268,32.235,1.93,25.768,1.43.142,1.43.142Z" transform="translate(3.093 0.035)" fill="#fff" stroke="#a09d9d" stroke-width="1"/>
        <path id="Path_56" data-name="Path 56" d="M0,0,.927.023l.362,24.9L.362,24.9Z" transform="translate(10.247 35.116)" fill="#a09d9d" stroke="#a09d9d" stroke-width="1"/>
        <g id="Path_101" data-name="Path 101" transform="translate(2.343 59.153)" fill="#a09d9d">
          <path d="M 10.04120254516602 2.353630065917969 C 9.701903343200684 2.353630065917969 9.355452537536621 2.350600004196167 9.011492729187012 2.344630002975464 C 6.852283000946045 2.307110071182251 4.772522926330566 2.153310060501099 3.155313014984131 1.91156005859375 C 1.776646375656128 1.705463051795959 1.093512177467346 1.490709543228149 0.7658775448799133 1.350064992904663 C 1.065515995025635 1.234273910522461 1.655721545219421 1.068933725357056 2.7828528881073 0.9233899712562561 C 4.166243076324463 0.7447500228881836 5.986282825469971 0.646369993686676 7.907702922821045 0.646369993686676 C 8.247002601623535 0.646369993686676 8.593453407287598 0.649399995803833 8.937413215637207 0.6553699970245361 C 11.09662342071533 0.6928899884223938 13.17638301849365 0.8466899991035461 14.79359340667725 1.08843994140625 C 16.17226028442383 1.294536948204041 16.85539436340332 1.509290456771851 17.18302917480469 1.649935007095337 C 16.88339042663574 1.765726089477539 16.29318428039551 1.931066274642944 15.16605281829834 2.076610088348389 C 13.78266334533691 2.255249977111816 11.96262264251709 2.353630065917969 10.04120254516602 2.353630065917969 Z" stroke="none"/>
          <path d="M 7.907703399658203 1.146370053291321 C 6.091324806213379 1.146370053291321 4.419106483459473 1.231119632720947 3.071296691894531 1.391447782516479 C 4.463264465332031 1.60919725894928 6.463100433349609 1.800269484519958 9.020162582397461 1.84469997882843 C 9.36140251159668 1.850630044937134 9.704933166503906 1.853629946708679 10.04120254516602 1.853629946708679 C 11.85758113861084 1.853629946708679 13.52979850769043 1.768880367279053 14.87760925292969 1.608552217483521 C 13.48564147949219 1.39080274105072 11.48580551147461 1.199730515480042 8.928743362426758 1.15530002117157 C 8.587503433227539 1.149369955062866 8.243972778320312 1.146370053291321 7.907703399658203 1.146370053291321 M 7.907707214355469 0.1463673114776611 C 8.248337745666504 0.1463673114776611 8.594783782958984 0.1493456363677979 8.946103096008301 0.1554501056671143 C 13.88690280914307 0.241300106048584 17.90490341186523 0.912869930267334 17.92056274414062 1.655449986457825 C 17.93510055541992 2.345218896865845 14.49104499816895 2.853632688522339 10.04119873046875 2.853632688522339 C 9.700568199157715 2.853632688522339 9.354122161865234 2.850654363632202 9.002802848815918 2.844549894332886 C 4.062003135681152 2.758699893951416 0.04400253295898438 2.087130069732666 0.02834320068359375 1.344550013542175 C 0.01380538940429688 0.6547811031341553 3.457860946655273 0.1463673114776611 7.907707214355469 0.1463673114776611 Z" stroke="none" fill="#a09d9d"/>
        </g>
      </g>
      <g id="Glass-2" data-name="Glass" transform="translate(26.372 8.207) rotate(-16)">
        <path id="Path_55-2" data-name="Path 55" d="M1.374.078l12.4-.448s2.6,19.152-.665,25.646-9.463,6.633-12.4.333S1.374.078,1.374.078Z" transform="translate(3.241 -2.097)" fill="#fff" stroke="#a09d9d" stroke-width="1"/>
        <path id="Path_56-2" data-name="Path 56" d="M.367,0,.5-.009.273,22.59.136,22.6Z" transform="translate(9.934 31.4)" fill="#a09d9d" stroke="#a09d9d" stroke-width="1"/>
        <path id="Path_102" data-name="Path 102" d="M9.64-.207c5.324-.114,9.621.372,9.6,1.086s-4.358,1.386-9.682,1.5-9.621-.372-9.6-1.086S4.316-.093,9.64-.207Z" transform="translate(0.438 53.337)" fill="#a09d9d"/>
      </g>
      <g id="Liquid" transform="translate(8.746 21.254)">
        <path id="Path_57" data-name="Path 57" d="M1311.768-715.605H1327.1s0,12.4-3.686,18.681-9.246,7.483-12.933,1.2S1311.768-715.605,1311.768-715.605Z" transform="translate(-1309.116 715.605)" fill="#a09d9d" stroke="#a09d9d" stroke-width="1"/>
        <g id="Ellipse_26" data-name="Ellipse 26" transform="translate(4.884 4.886)" fill="#fff" stroke="#fff" stroke-width="1">
          <circle cx="0.25" cy="0.25" r="0.25" stroke="none"/>
          <circle cx="0.25" cy="0.25" r="0.25" fill="none"/>
        </g>
        <g id="Ellipse_27" data-name="Ellipse 27" transform="translate(9.884 10.204)" fill="none" stroke="#fff" stroke-width="0.5">
          <circle cx="0.5" cy="0.5" r="0.5" stroke="none"/>
          <circle cx="0.5" cy="0.5" r="0.25" fill="none"/>
        </g>
        <g id="Ellipse_28" data-name="Ellipse 28" transform="translate(13.884 3.605)" fill="#fff" stroke="#fff" stroke-width="1">
          <circle cx="0.35" cy="0.35" r="0.35" stroke="none"/>
          <circle cx="0.35" cy="0.35" r="0.15" fill="none"/>
        </g>
        <g id="Ellipse_29" data-name="Ellipse 29" transform="translate(3.884 16.556)" fill="#fff" stroke="#fff" stroke-width="1">
          <circle cx="0.25" cy="0.25" r="0.25" stroke="none"/>
          <circle cx="0.25" cy="0.25" r="0.25" fill="none"/>
        </g>
      </g>
      <g id="Liquid-2" data-name="Liquid" transform="translate(30.684 11.375)">
        <path id="Path_57-2" data-name="Path 57" d="M1307.11-720.668H1322.8s6.312,14.075,2.625,20-9.774,4.968-13.461-.958S1307.11-720.668,1307.11-720.668Z" transform="translate(-1307.11 720.668)" fill="#a09d9d" stroke="#a09d9d" stroke-width="1"/>
        <g id="Ellipse_26-2" data-name="Ellipse 26" transform="translate(6.89 11.668)" fill="#ff1e3c" stroke="#fff" stroke-width="1">
          <circle cx="0.25" cy="0.25" r="0.25" stroke="none"/>
          <circle cx="0.25" cy="0.25" r="0.25" fill="none"/>
        </g>
        <g id="Ellipse_28-2" data-name="Ellipse 28" transform="translate(10.89 4.668)" fill="#ff1e3c" stroke="#fff" stroke-width="1">
          <circle cx="0.35" cy="0.35" r="0.35" stroke="none"/>
          <circle cx="0.35" cy="0.35" r="0.15" fill="none"/>
        </g>
        <g id="Ellipse_29-2" data-name="Ellipse 29" transform="translate(14.89 16.668)" fill="#ff1e3c" stroke="#fff" stroke-width="1">
          <circle cx="0.25" cy="0.25" r="0.25" stroke="none"/>
          <circle cx="0.25" cy="0.25" r="0.25" fill="none"/>
        </g>
      </g>
    </g>
  </g>
</svg>
