<svg xmlns="http://www.w3.org/2000/svg" width="72.787" height="62.439" viewBox="0 0 72.787 62.439">
  <g id="Grey-Hot-Icon" transform="translate(6.306 -5.405)">
    <g id="Path_17" data-name="Path 17" transform="translate(-5.37 19.587)" fill="#a09d9d">
      <path d="M 27.49701118469238 47.65695953369141 C 20.85215187072754 47.65695953369141 14.34414196014404 45.07254791259766 8.676551818847656 40.18313980102539 C 6.074811935424805 37.93861770629883 3.994841814041138 34.45095825195312 2.494411706924438 29.81702995300293 C 1.280661821365356 26.06848907470703 0.444451779127121 21.57387924194336 0.009011777117848396 16.45806884765625 C -0.6202507615089417 9.065080642700195 -0.2192953824996948 2.491219997406006 -0.07694543898105621 0.5999993681907654 L 53.60331344604492 0.5999993681907654 C 53.80194091796875 2.46940016746521 54.41101837158203 9.074746131896973 54.00620269775391 16.49415969848633 C 53.72729110717773 21.60589981079102 53.02896118164062 26.09663009643555 51.93063354492188 29.84162902832031 C 50.57400131225586 34.46733093261719 48.60457992553711 37.94849014282227 46.07707214355469 40.18840026855469 C 40.56376266479492 45.07436752319336 34.13888168334961 47.65695953369141 27.49701118469238 47.65695953369141 Z" stroke="none"/>
      <path d="M 0.4819068908691406 1.200000762939453 C 0.3214988708496094 3.596664428710938 0.03223037719726562 9.656169891357422 0.6068534851074219 16.40718841552734 C 1.038421630859375 21.47752952575684 1.865543365478516 25.92706871032715 3.065231323242188 29.63220024108887 C 4.531330108642578 34.16011047363281 6.551113128662109 37.55710983276367 9.0684814453125 39.72882843017578 C 14.62558364868164 44.52293014526367 20.99806213378906 47.05696105957031 27.49701118469238 47.05696105957031 C 33.98998260498047 47.05696105957031 40.27725219726562 44.52656936645508 45.67913055419922 39.73935699462891 C 48.11936187744141 37.57677841186523 50.02813339233398 34.19271850585938 51.35242080688477 29.68115997314453 C 52.43790054321289 25.98313903808594 53.12887191772461 21.54134941101074 53.40612030029297 16.47917938232422 C 53.77812576293945 9.687015533447266 53.29441833496094 3.576923370361328 53.06140518188477 1.200000762939453 L 0.4819068908691406 1.200000762939453 M -0.6300697326660156 0 L 54.13971328735352 0 C 54.13971328735352 0 57.93879318237305 30.47807884216309 46.47502136230469 40.6374397277832 C 40.74313735961914 45.71711730957031 34.13960266113281 48.2569580078125 27.49700927734375 48.2569580078125 C 20.85441589355469 48.2569580078125 14.17275619506836 45.71711730957031 8.284622192382812 40.6374397277832 C -3.491649627685547 30.47807884216309 -0.6300697326660156 0 -0.6300697326660156 0 Z" stroke="none" fill="#a09d9d"/>
    </g>
    <path id="Path_45" data-name="Path 45" d="M45.432,23.189s41.828-2.175-5.844,30.68" transform="translate(2 2.58)" fill="none" stroke="#a09d9d" stroke-width="4"/>
    <path id="Path_47" data-name="Path 47" d="M1.064,0a4.321,4.321,0,0,0,.215,5.838c2.746,2.887,1.376,3.742.637,5.342" transform="matrix(0.985, 0.174, -0.174, 0.985, 2.052, 7.578)" fill="none" stroke="#a09d9d" stroke-linecap="round" stroke-width="1.5"/>
    <path id="Path_48" data-name="Path 48" d="M1.064,0a4.321,4.321,0,0,0,.215,5.838c2.746,2.887,1.376,3.742.637,5.342" transform="matrix(0.985, 0.174, -0.174, 0.985, 21.052, 6.578)" fill="none" stroke="#a09d9d" stroke-linecap="round" stroke-width="1.5"/>
    <path id="Path_49" data-name="Path 49" d="M1.064,0a4.321,4.321,0,0,0,.215,5.838c2.746,2.887,1.376,3.742.637,5.342" transform="matrix(0.985, 0.174, -0.174, 0.985, 40.052, 7.578)" fill="none" stroke="#a09d9d" stroke-linecap="round" stroke-width="1.5"/>
    <path id="Path_50" data-name="Path 50" d="M-3.226,25.653c-.369,8.709.151,16.855,2.092,22.862A28.206,28.206,0,0,0,5.031,59.346" transform="translate(2 -1.416)" fill="none" stroke="#fff" stroke-linecap="round" stroke-width="2"/>
  </g>
</svg>
